<svg width="32" height="32" viewBox="0 0 32 32" fill="none" xmlns="http://www.w3.org/2000/svg">
<g clip-path="url(#clip0_191_620)">
<path d="M2.67186 29.3332L4.47452 22.7092C3.28671 20.673 2.66265 18.3572 2.66652 15.9998C2.66652 8.63584 8.63586 2.6665 15.9999 2.6665C23.3639 2.6665 29.3332 8.63584 29.3332 15.9998C29.3332 23.3638 23.3639 29.3332 15.9999 29.3332C13.6436 29.337 11.3287 28.7134 9.29319 27.5265L2.67186 29.3332ZM11.1879 9.74384C11.0157 9.75453 10.8474 9.79988 10.6932 9.87717C10.5486 9.95908 10.4165 10.0615 10.3012 10.1812C10.1412 10.3318 10.0505 10.4625 9.95319 10.5892C9.4604 11.2305 9.19533 12.0177 9.19986 12.8265C9.20252 13.4798 9.37319 14.1158 9.63986 14.7105C10.1852 15.9132 11.0825 17.1865 12.2679 18.3665C12.5532 18.6505 12.8319 18.9358 13.1319 19.2012C14.603 20.4965 16.3562 21.4306 18.2519 21.9292L19.0105 22.0452C19.2572 22.0585 19.5039 22.0398 19.7519 22.0278C20.1402 22.0078 20.5193 21.9026 20.8625 21.7198C21.0839 21.6025 21.1879 21.5438 21.3732 21.4265C21.3732 21.4265 21.4305 21.3892 21.5399 21.3065C21.7199 21.1732 21.8305 21.0785 21.9799 20.9225C22.0905 20.8078 22.1865 20.6732 22.2599 20.5198C22.3639 20.3025 22.4679 19.8878 22.5105 19.5425C22.5425 19.2785 22.5332 19.1345 22.5292 19.0452C22.5239 18.9025 22.4052 18.7545 22.2759 18.6918L21.4999 18.3438C21.4999 18.3438 20.3399 17.8385 19.6319 17.5158C19.5572 17.4833 19.4772 17.4648 19.3959 17.4612C19.3046 17.4518 19.2125 17.4621 19.1255 17.4913C19.0386 17.5205 18.9589 17.568 18.8919 17.6305V17.6278C18.8852 17.6278 18.7959 17.7038 17.8319 18.8718C17.7765 18.9462 17.7003 19.0024 17.6129 19.0332C17.5255 19.0641 17.4309 19.0683 17.3412 19.0452C17.2543 19.0219 17.1692 18.9925 17.0865 18.9572C16.9212 18.8878 16.8639 18.8612 16.7505 18.8118L16.7439 18.8092C15.9811 18.4761 15.2748 18.0263 14.6505 17.4758C14.4825 17.3292 14.3265 17.1692 14.1665 17.0145C13.642 16.5122 13.1848 15.9439 12.8065 15.3238L12.7279 15.1972C12.6714 15.1121 12.6257 15.0202 12.5919 14.9238C12.5412 14.7278 12.6732 14.5705 12.6732 14.5705C12.6732 14.5705 12.9972 14.2158 13.1479 14.0238C13.2733 13.8643 13.3904 13.6983 13.4985 13.5265C13.6559 13.2732 13.7052 13.0132 13.6225 12.8118C13.2492 11.8998 12.8625 10.9918 12.4652 10.0905C12.3865 9.91184 12.1532 9.78384 11.9412 9.7585C11.8692 9.7505 11.7972 9.7425 11.7252 9.73717C11.5461 9.72827 11.3667 9.73139 11.1879 9.74384Z" fill="white"/>
</g>
<defs>
<clipPath id="clip0_191_620">
<rect width="32" height="32" fill="white"/>
</clipPath>
</defs>
</svg>
