<svg width="24" height="24" viewBox="0 0 24 24" fill="none" xmlns="http://www.w3.org/2000/svg">
<g clip-path="url(#clip0_547_445)">
<path d="M16.1585 8.24605C15.3937 7.90074 14.5735 7.64633 13.716 7.50061C13.7003 7.4978 13.6848 7.50483 13.6767 7.51889C13.5712 7.70349 13.4543 7.94431 13.3726 8.1336C12.4502 7.99773 11.5326 7.99773 10.6292 8.1336C10.5473 7.9401 10.4262 7.70349 10.3203 7.51889C10.3122 7.5053 10.2966 7.49827 10.281 7.50061C9.42395 7.64586 8.60378 7.90027 7.83846 8.24605C7.83184 8.24886 7.82616 8.25355 7.82239 8.25964C6.2667 10.5466 5.84052 12.7773 6.04959 14.9803C6.05054 14.9911 6.05668 15.0014 6.0652 15.008C7.0916 15.7497 8.08586 16.1999 9.06164 16.4984C9.07726 16.5031 9.09381 16.4975 9.10374 16.4848C9.33456 16.1746 9.54032 15.8476 9.71674 15.5037C9.72715 15.4835 9.71721 15.4596 9.69593 15.4517C9.36957 15.3299 9.0588 15.1813 8.75987 15.0127C8.73622 14.9991 8.73432 14.9658 8.75608 14.9499C8.81898 14.9035 8.88191 14.8552 8.94198 14.8065C8.95284 14.7976 8.96799 14.7957 8.98077 14.8013C10.9446 15.6836 13.0708 15.6836 15.0115 14.8013C15.0243 14.7953 15.0394 14.7971 15.0507 14.806C15.1108 14.8548 15.1737 14.9035 15.2371 14.9499C15.2589 14.9658 15.2575 14.9991 15.2338 15.0127C14.9348 15.1846 14.6241 15.3299 14.2972 15.4512C14.276 15.4591 14.2665 15.4835 14.2769 15.5037C14.4572 15.8471 14.6629 16.1742 14.8895 16.4843C14.8989 16.4975 14.9159 16.5031 14.9316 16.4984C15.9121 16.1999 16.9063 15.7497 17.9327 15.008C17.9417 15.0014 17.9474 14.9915 17.9483 14.9808C18.1986 12.4338 17.5293 10.2214 16.1741 8.26011C16.1708 8.25355 16.1651 8.24886 16.1585 8.24605ZM10.01 13.6389C9.41875 13.6389 8.93157 13.1048 8.93157 12.4488C8.93157 11.7929 9.4093 11.2588 10.01 11.2588C10.6154 11.2588 11.0979 11.7976 11.0884 12.4488C11.0884 13.1048 10.6107 13.6389 10.01 13.6389ZM13.9974 13.6389C13.4062 13.6389 12.919 13.1048 12.919 12.4488C12.919 11.7929 13.3967 11.2588 13.9974 11.2588C14.6028 11.2588 15.0852 11.7976 15.0758 12.4488C15.0758 13.1048 14.6028 13.6389 13.9974 13.6389Z" fill="white"/>
</g>
<rect x="0.5" y="0.5" width="23" height="23" rx="11.5" stroke="white"/>
<defs>
<clipPath id="clip0_547_445">
<rect width="12" height="12" fill="white" transform="translate(6 6)"/>
</clipPath>
</defs>
</svg>
