<svg width="32" height="32" viewBox="0 0 32 32" fill="none" xmlns="http://www.w3.org/2000/svg">
<path fill-rule="evenodd" clip-rule="evenodd" d="M9.95342 1.4215C11.5179 1.34979 12.0165 1.3335 16.0002 1.3335C19.9846 1.3335 20.4824 1.3506 22.046 1.4215C23.608 1.49239 24.6747 1.74091 25.6076 2.1035C26.5862 2.47191 27.4726 3.04915 28.2052 3.79506C28.9512 4.52763 29.5286 5.41411 29.8968 6.39268C30.2594 7.32564 30.5071 8.39224 30.5788 9.95342C30.6506 11.5179 30.6668 12.0165 30.6668 16.0002C30.6668 19.9838 30.6498 20.4824 30.5788 22.047C30.5079 23.608 30.2594 24.6747 29.8968 25.6076C29.522 26.5716 29.02 27.3904 28.2052 28.2052C27.4727 28.9512 26.5862 29.5286 25.6076 29.8968C24.6747 30.2594 23.608 30.5071 22.047 30.5788C20.4824 30.6506 19.9838 30.6668 16.0002 30.6668C12.0165 30.6668 11.5179 30.6498 9.95342 30.5788C8.39224 30.5079 7.32564 30.2594 6.39268 29.8968C5.42875 29.522 4.60987 29.02 3.79506 28.2052C3.04902 27.4727 2.47174 26.5862 2.1035 25.6076C1.74091 24.6747 1.4932 23.608 1.4215 22.047C1.34979 20.4824 1.3335 19.9846 1.3335 16.0002C1.3335 12.0157 1.3506 11.5179 1.4215 9.95424C1.49239 8.39224 1.74091 7.32564 2.1035 6.39268C2.47191 5.41418 3.04915 4.52774 3.79506 3.79506C4.52762 3.04902 5.4141 2.47174 6.39268 2.1035C7.32564 1.74091 8.39224 1.4932 9.95342 1.4215ZM21.9271 4.0615C20.3806 3.99142 19.9162 3.97594 16.0002 3.97594C12.0842 3.97594 11.6197 3.99142 10.0732 4.0615C8.6432 4.12668 7.86668 4.36542 7.35008 4.56668C6.66564 4.83231 6.17675 5.15008 5.66342 5.66342C5.15091 6.17675 4.83231 6.66564 4.56668 7.35008C4.36542 7.86668 4.12668 8.6432 4.0615 10.0732C3.99142 11.6197 3.97594 12.0842 3.97594 16.0002C3.97594 19.9162 3.99142 20.3806 4.0615 21.9271C4.12668 23.3571 4.36542 24.1336 4.56668 24.6503C4.80164 25.2874 5.17642 25.8636 5.66342 26.337C6.13662 26.8239 6.71298 27.1987 7.35008 27.4336C7.86668 27.635 8.6432 27.8736 10.0732 27.9388C11.6197 28.009 12.0834 28.0244 16.0002 28.0244C19.917 28.0244 20.3806 28.009 21.9271 27.9388C23.3571 27.8736 24.1336 27.635 24.6503 27.4336C25.3347 27.168 25.8236 26.8503 26.337 26.337C26.8239 25.8638 27.1987 25.2874 27.4336 24.6503C27.635 24.1336 27.8736 23.3571 27.9388 21.9271C28.009 20.3806 28.0244 19.9162 28.0244 16.0002C28.0244 12.0842 28.009 11.6197 27.9388 10.0732C27.8736 8.6432 27.635 7.86668 27.4336 7.35008C27.168 6.66564 26.8503 6.17675 26.337 5.66342C25.8236 5.15091 25.3347 4.83231 24.6503 4.56668C24.1336 4.36542 23.3571 4.12668 21.9271 4.0615ZM14.1275 20.5214C14.7212 20.7674 15.3575 20.8939 16.0002 20.8939C17.2982 20.8939 18.5428 20.3783 19.4606 19.4606C20.3784 18.5428 20.894 17.298 20.894 16.0002C20.894 14.7023 20.3784 13.4575 19.4606 12.5397C18.5428 11.622 17.2982 11.1064 16.0002 11.1064C15.3575 11.1064 14.7212 11.233 14.1275 11.4789C13.5336 11.7248 12.9942 12.0853 12.5398 12.5397C12.0853 12.9942 11.7249 13.5336 11.4789 14.1274C11.233 14.7211 11.1064 15.3575 11.1064 16.0002C11.1064 16.6428 11.233 17.2792 11.4789 17.873C11.7249 18.4667 12.0853 19.0062 12.5398 19.4606C12.9942 19.915 13.5336 20.2755 14.1275 20.5214ZM10.6696 10.6695C12.0833 9.25574 14.0008 8.46148 16.0002 8.46148C17.9996 8.46148 19.9171 9.25574 21.3308 10.6695C22.7446 12.0833 23.5388 14.0008 23.5388 16.0002C23.5388 17.9995 22.7446 19.917 21.3308 21.3308C19.9171 22.7446 17.9996 23.5388 16.0002 23.5388C14.0008 23.5388 12.0833 22.7446 10.6696 21.3308C9.25579 19.917 8.46154 17.9995 8.46154 16.0002C8.46154 14.0008 9.25579 12.0833 10.6696 10.6695ZM25.2104 9.58467C25.5446 9.25047 25.7323 8.79722 25.7323 8.3246C25.7323 7.85198 25.5446 7.39872 25.2104 7.06454C24.8762 6.73035 24.423 6.5426 23.9503 6.5426C23.4778 6.5426 23.0244 6.73035 22.6903 7.06454C22.356 7.39872 22.1683 7.85198 22.1683 8.3246C22.1683 8.79722 22.356 9.25047 22.6903 9.58467C23.0244 9.91886 23.4778 10.1066 23.9503 10.1066C24.423 10.1066 24.8762 9.91886 25.2104 9.58467Z" fill="white"/>
</svg>
