<svg width="24" height="24" viewBox="0 0 24 24" fill="none" xmlns="http://www.w3.org/2000/svg">
<g clip-path="url(#clip0_547_451)">
<path d="M14.1874 7.62492C14.7671 7.62665 15.3225 7.85769 15.7324 8.26758C16.1423 8.67747 16.3733 9.23291 16.3751 9.81258V14.1874C16.3733 14.7671 16.1423 15.3225 15.7324 15.7324C15.3225 16.1423 14.7671 16.3733 14.1874 16.3751H9.81258C9.23291 16.3733 8.67747 16.1423 8.26758 15.7324C7.85769 15.3225 7.62665 14.7671 7.62492 14.1874V9.81258C7.62665 9.23291 7.85769 8.67747 8.26758 8.26758C8.67747 7.85769 9.23291 7.62665 9.81258 7.62492H14.1874ZM14.1874 6.75H9.81258C8.12812 6.75 6.75 8.12812 6.75 9.81258V14.1874C6.75 15.8719 8.12812 17.25 9.81258 17.25H14.1874C15.8719 17.25 17.25 15.8719 17.25 14.1874V9.81258C17.25 8.12812 15.8719 6.75 14.1874 6.75Z" fill="white"/>
<path d="M14.8438 9.8125C14.714 9.8125 14.5871 9.77401 14.4792 9.7019C14.3712 9.62979 14.2871 9.5273 14.2375 9.40739C14.1878 9.28747 14.1748 9.15552 14.2001 9.02822C14.2254 8.90092 14.2879 8.78399 14.3797 8.69221C14.4715 8.60043 14.5884 8.53793 14.7157 8.51261C14.843 8.48729 14.975 8.50028 15.0949 8.54995C15.2148 8.59962 15.3173 8.68374 15.3894 8.79166C15.4615 8.89958 15.5 9.02646 15.5 9.15625C15.5002 9.24248 15.4833 9.3279 15.4504 9.40761C15.4175 9.48731 15.3692 9.55973 15.3082 9.6207C15.2472 9.68168 15.1748 9.73001 15.0951 9.76292C15.0154 9.79584 14.93 9.81269 14.8438 9.8125Z" fill="white"/>
<path d="M12 10.2499C12.3461 10.2499 12.6845 10.3526 12.9723 10.5449C13.2601 10.7372 13.4844 11.0105 13.6169 11.3303C13.7493 11.6501 13.784 12.0019 13.7165 12.3414C13.6489 12.6809 13.4822 12.9927 13.2375 13.2375C12.9927 13.4822 12.6809 13.6489 12.3414 13.7165C12.0019 13.784 11.6501 13.7493 11.3303 13.6169C11.0105 13.4844 10.7372 13.2601 10.5449 12.9723C10.3526 12.6845 10.2499 12.3461 10.2499 12C10.2504 11.536 10.435 11.0912 10.7631 10.7631C11.0912 10.435 11.536 10.2504 12 10.2499ZM12 9.375C11.4808 9.375 10.9733 9.52895 10.5416 9.81739C10.11 10.1058 9.7735 10.5158 9.57482 10.9955C9.37614 11.4751 9.32415 12.0029 9.42544 12.5121C9.52673 13.0213 9.77673 13.489 10.1438 13.8562C10.511 14.2233 10.9787 14.4733 11.4879 14.5746C11.9971 14.6758 12.5249 14.6239 13.0045 14.4252C13.4842 14.2265 13.8942 13.8901 14.1826 13.4584C14.471 13.0267 14.625 12.5192 14.625 12C14.625 11.3038 14.3484 10.6361 13.8562 10.1438C13.3639 9.65156 12.6962 9.375 12 9.375Z" fill="white"/>
</g>
<rect x="0.5" y="0.5" width="23" height="23" rx="11.5" stroke="white"/>
<defs>
<clipPath id="clip0_547_451">
<rect width="12" height="12" fill="white" transform="translate(6 6)"/>
</clipPath>
</defs>
</svg>
