<svg width="32" height="32" viewBox="0 0 32 32" fill="none" xmlns="http://www.w3.org/2000/svg">
<g clip-path="url(#clip0_191_626)">
<path d="M8.62616 1.79688C4.21144 4.09356 1.00211 8.38815 0.196777 13.4821H1.12393C7.1091 13.3439 11.8003 12.8248 15.6294 11.6522C13.9651 8.70162 11.9362 5.80635 9.50055 2.86425L9.49705 2.86L8.62616 1.79688Z" fill="white"/>
<path d="M0.0045304 15.6157C0.00151576 15.7435 0 15.8716 0 16.0002C0 20.3026 1.69841 24.2086 4.46131 27.0841L4.80529 26.3936C4.82419 26.3556 4.84534 26.3189 4.86861 26.2835C8.40363 20.9034 12.4086 17.7028 16.8824 16.2667C17.1867 16.169 17.4926 16.0797 17.7999 15.9985C17.4434 15.1808 17.0618 14.3708 16.6543 13.5664C12.4629 14.9156 7.42315 15.4713 1.16097 15.6152L1.13646 15.6158L0.0045304 15.6157Z" fill="white"/>
<path d="M6.10303 28.5724C8.82616 30.7189 12.2635 31.9998 15.9999 31.9998C17.9045 31.9998 19.7314 31.667 21.4257 31.0562V29.5189C20.9041 25.3918 19.9895 21.6045 18.6138 17.9922C18.2506 18.0814 17.8908 18.1831 17.5343 18.2975C13.6459 19.5457 10.0136 22.3565 6.68611 27.4018L6.10303 28.5724Z" fill="white"/>
<path d="M23.5593 30.1053C27.6651 27.9003 30.697 23.9549 31.6685 19.2561L30.464 18.7115C26.9948 17.6921 23.7626 17.2732 20.7505 17.6131C22.1127 21.2835 23.027 25.136 23.551 29.3199C23.5565 29.3638 23.5593 29.408 23.5593 29.4523V30.1053Z" fill="white"/>
<path d="M31.9662 17.0491C31.9886 16.7022 31.9999 16.3523 31.9999 15.9998C31.9999 12.0057 30.5362 8.35335 28.1162 5.5498L27.4824 6.25199C24.9874 9.2892 22.1364 11.3932 18.6709 12.8277C19.1234 13.7321 19.5449 14.6441 19.9365 15.5661C23.5037 15.0563 27.2524 15.536 31.1391 16.686C31.1858 16.6998 31.2315 16.7168 31.2758 16.7369L31.9662 17.0491Z" fill="white"/>
<path d="M26.6155 4.02867C23.7909 1.52218 20.0732 0 16.0001 0C14.1276 0 12.3302 0.321702 10.6602 0.912851L11.1459 1.50587C13.7478 4.649 15.9086 7.75368 17.671 10.9316C20.9617 9.60205 23.5706 7.65875 25.849 4.87985C25.8596 4.86682 25.8707 4.85404 25.882 4.84154L26.6155 4.02867Z" fill="white"/>
</g>
<defs>
<clipPath id="clip0_191_626">
<rect width="32" height="32" fill="white"/>
</clipPath>
</defs>
</svg>
