<svg width="24" height="24" viewBox="0 0 24 24" fill="none" xmlns="http://www.w3.org/2000/svg">
<path d="M8.68607 16.5003H6.19821V9.4901H8.68607V16.5003ZM7.4408 8.53385C6.64527 8.53385 6 7.95729 6 7.26119C6 6.92683 6.1518 6.60617 6.422 6.36974C6.6922 6.13331 7.05868 6.00049 7.4408 6.00049C7.82293 6.00049 8.1894 6.13331 8.45961 6.36974C8.72981 6.60617 8.88161 6.92683 8.88161 7.26119C8.88161 7.95729 8.23607 8.53385 7.4408 8.53385ZM17.9973 16.5003H15.5148V13.0878C15.5148 12.2745 15.4961 11.2315 14.2213 11.2315C12.9279 11.2315 12.7296 12.1151 12.7296 13.0292V16.5003H10.2445V9.4901H12.6305V10.4463H12.6654C12.9975 9.89557 13.8088 9.31432 15.0193 9.31432C17.5371 9.31432 18 10.7651 18 12.6495V16.5003H17.9973Z" fill="white"/>
<rect x="0.5" y="0.5" width="23" height="23" rx="11.5" stroke="white"/>
</svg>
