<svg width="24" height="24" viewBox="0 0 24 24" fill="none" xmlns="http://www.w3.org/2000/svg">
<path d="M17.0234 7.17509C17.0234 7.17509 18.083 6.76191 17.9947 7.76535C17.9653 8.17854 17.7004 9.62467 17.4943 11.1889L16.7879 15.8224C16.7879 15.8224 16.7291 16.5012 16.1992 16.6193C15.6694 16.7373 14.8747 16.2061 14.7275 16.088C14.6098 15.9995 12.52 14.6714 11.7841 14.0221C11.5781 13.845 11.3426 13.4909 11.8135 13.0777L14.9041 10.1264C15.2574 9.77225 15.6106 8.94588 14.1388 9.94933L10.0181 12.7531C10.0181 12.7531 9.54713 13.0482 8.66412 12.7826L6.75089 12.1923C6.75089 12.1923 6.04447 11.7496 7.25127 11.3069C10.1947 9.91979 13.8151 8.50317 17.0234 7.17509Z" fill="white"/>
<rect x="0.5" y="0.5" width="23" height="23" rx="11.5" stroke="white"/>
</svg>
