<svg width="158" height="29" viewBox="0 0 158 29" fill="none" xmlns="http://www.w3.org/2000/svg">
<path d="M5.12969 23.8214V7.45714L25.6074 29C27.5772 29 29.2598 27.9229 30.1626 26.3071L30.1216 26.2657C30.5319 25.5614 30.7371 24.7329 30.7371 23.8214V0C27.9055 0 25.6074 2.32 25.6074 5.17857V21.5429L5.12969 0C2.33914 0 0 2.36143 0 5.17857V29C2.83159 29 5.12969 26.68 5.12969 23.8214Z" fill="white"/>
<path d="M41.7236 23.8214L49.2335 6.91857L56.7023 23.8214C58.0976 26.97 61.1754 29 64.5816 29L51.7778 0H46.6481L33.8444 29C37.2505 29 40.3284 26.97 41.7236 23.8214ZM46.0736 23.8214L49.2335 29L52.3524 23.8214H46.0736Z" fill="white"/>
<path d="M61.4185 5.17857H74.2222V29C77.0538 29 79.3519 26.68 79.3519 23.8214V5.17857H87.0259C89.8575 5.17857 92.1556 2.85857 92.1556 0H66.5481C63.7166 0 61.4185 2.32 61.4185 5.17857Z" fill="white"/>
<path d="M119.948 17.0686C122.78 17.0686 125.078 14.79 125.078 11.9314H94.3408V17.0686H119.948ZM119.948 5.17857C122.78 5.17857 125.078 2.85857 125.078 0H99.4705C96.6389 0 94.3408 2.32 94.3408 5.17857H119.948ZM94.3408 23.8214C94.3408 26.68 96.6389 29 99.4705 29H119.948C122.78 29 125.078 26.68 125.078 23.8214H94.3408Z" fill="white"/>
<path d="M133.952 29L142.652 18.5186L147.043 23.8214C149.751 27.0943 153.773 29 158 29L145.976 14.5L158 0H151.311L142.652 10.4814L138.22 5.17857C135.511 1.90571 131.49 0 127.263 0L139.287 14.5L127.263 29H133.952Z" fill="white"/>
</svg>
