<svg width="1336" height="836" viewBox="0 0 1336 836" fill="none" xmlns="http://www.w3.org/2000/svg">
<path d="M853.042 89.9963C847.253 94.413 842.388 94.4763 840.846 90.7429L641.379 244.14L477.342 523.112L318.823 622.355L243.617 578.552L160.325 639.78L112.178 749.497L111.964 749.979L17.9896 809.086L-1.52771 786.524L-62.7735 828.649L-85.5014 894.665L-85.6144 894.981L-187.499 954.871C-187.583 956.304 -187.963 957.535 -188.385 957.799C-188.923 958.105 -189.385 956.915 -189.418 955.142C-189.452 953.369 -189.053 951.669 -188.487 951.338C-188.021 951.066 -187.639 951.847 -187.498 953.135L-85.9176 892.98L-63.1287 826.593L-1.13093 783.682L18.4232 806.173L111.356 747.333L159.396 637.613L159.647 637.061L244.414 574.391L319.777 617.87L475.968 519.392L639.53 240.248L840.754 84.6186C842.129 78.6199 846.828 71.3229 852.62 66.8C859.628 61.3243 865.485 62.0834 865.588 68.5446C865.708 75.0241 860.048 84.6268 853.042 89.9963Z" fill="url(#paint0_linear_340_395)"/>
<path d="M665.244 264.133L495.234 544.886L306.799 657.107L233.483 611.048L169.185 656.329L119.698 766.597L12.5864 830.68L-6.61063 807.639L-58.4375 841.708L-81.6394 907.934L-122.15 930.505C-122.265 932.177 -122.756 933.617 -123.365 933.956C-124.101 934.381 -124.719 933.027 -124.773 930.962C-124.826 928.896 -124.252 926.89 -123.517 926.466C-122.908 926.127 -122.377 927.009 -122.196 928.502L-82.0044 905.922L-58.8274 839.616L-6.26816 804.848L12.9658 827.819L119.037 763.896L168.438 653.537L234.198 606.964L307.672 652.699L493.773 541.075L663.309 260.15L744.075 200.188C745.245 194.733 749.35 188.281 754.383 184.483C760.459 179.932 765.546 181.079 765.667 187.071C765.761 193.089 760.877 201.604 754.804 206.049C749.773 209.741 745.545 209.439 744.186 205.843L665.244 264.133Z" fill="url(#paint1_linear_340_395)"/>
<path d="M-187.773 976.071C-187.333 975.826 -186.917 976.642 -186.775 977.931L-79.2267 920.823L-55.8462 854.948L-7.98168 824.765L11.073 848.254L123.783 783.79L173.509 674.751L173.76 674.199L230.068 636.026L302.654 683.927L503.84 569.423L661.65 314.338C659.83 311.564 660.647 306.065 663.931 300.708C667.913 294.234 674.008 290.463 677.557 292.28C681.124 294.116 680.696 300.945 676.643 307.452C673.286 312.842 668.52 316.213 665.014 316.124L505.363 573.244L301.828 688.221L229.389 640.04L207.075 655.061L313.092 729.454L407.863 680.901C408.5 677.17 410.775 673.471 413.552 672.035C416.911 670.285 419.762 672.457 419.836 676.933C419.936 681.383 417.244 686.383 413.85 688.096C411.056 689.514 408.684 688.169 407.924 685.147L312.195 733.781L203.885 657.204L174.562 676.939L124.48 786.422L80.9745 811.124L95.2379 826.173L166.667 788.035L191.526 736.851C190.818 734.751 191.09 731.506 192.359 728.872C193.897 725.703 196.267 724.656 197.644 726.533C199.022 728.411 198.9 732.518 197.362 735.687C196.075 738.303 194.244 739.427 192.862 738.63L167.431 790.845L94.7726 829.324L78.7337 812.361L10.7501 850.957L-8.29483 827.424L-46.7733 851.526L-16.3002 893.058L38.6094 864.444L46.479 873.937C47.3476 872.24 48.5645 871.668 49.4636 872.718C50.5436 874.013 50.7331 877.198 49.8985 879.799C49.064 882.401 47.5095 883.434 46.4122 882.121C45.5229 881.027 45.2536 878.681 45.6466 876.432L38.1486 867.383L-16.6751 895.707L-48.281 852.445L-55.4541 856.933L-78.8693 922.772L-145.719 957.995L-140.99 966.912L-72.6913 932.665L-55.2501 884.572L-51.5287 882.442C-51.3549 880.506 -50.689 878.76 -49.8993 878.283C-48.9221 877.732 -48.0937 879.197 -48.0294 881.6C-47.9823 883.984 -48.7333 886.402 -49.7105 886.953C-50.5175 887.411 -51.2238 886.454 -51.4621 884.738L-54.843 886.682L-72.2917 934.713L-141.167 968.954L-146.696 958.547L-186.705 979.633C-186.789 981.067 -187.142 982.271 -187.598 982.499C-188.154 982.786 -188.606 981.552 -188.639 979.78C-188.744 978.04 -188.328 976.359 -187.773 976.071Z" fill="url(#paint2_linear_340_395)"/>
<path d="M-185.458 1088.1C-185.003 1087.98 -184.606 1088.89 -184.458 1090.24L-100.541 1068.98L-91.4084 1086.64L-57.0677 1079.33L-45.8058 1052.41C-46.17 1050.78 -46.0535 1048.62 -45.429 1047.15C-44.7013 1045.42 -43.5747 1045.35 -42.8745 1047C-42.2013 1048.69 -42.2424 1051.47 -42.9701 1053.2C-43.5675 1054.64 -44.4589 1054.9 -45.1304 1053.98L-56.6703 1081.48L-90.3939 1088.52L-77.3718 1113.67L-25.2085 1105.59L-8.68894 1069.24L34.3994 1060.06L16.8973 1033.53L-3.91239 1038.99C-4.10579 1041.02 -4.88545 1042.7 -5.83864 1042.95C-6.96967 1043.23 -7.93221 1041.41 -7.98453 1038.86C-8.03686 1036.3 -7.15474 1033.97 -6.01393 1033.64C-5.06074 1033.39 -4.24526 1034.63 -3.96696 1036.55L17.2723 1030.88L36.3133 1059.62L36.2937 1059.71L82.4789 1049.87L105.867 1082.52L193.056 1068.65L229.125 1010.2C228.344 1007.76 228.634 1004.53 230.037 1002.25C231.707 999.55 234.291 999.269 235.798 1001.72C237.305 1004.16 237.163 1008.36 235.467 1011.09C234.046 1013.35 232.06 1013.82 230.573 1012.54L193.866 1071.84L107.805 1085.14L129.128 1114.87L194.87 1107.7L256.964 1010.42L406.331 978.217L552.261 1106.85L594.683 1103.66C595.601 1099.63 598.769 1096.43 602.665 1096.11C607.386 1095.73 611.342 1099.66 611.452 1104.94C611.545 1110.19 607.764 1114.7 603.036 1115.02C599.132 1115.27 595.823 1112.57 594.772 1108.64L550.846 1111.78L405.253 982.681L257.875 1013.82L195.653 1110.91L128.576 1117.93L82.0453 1052.79L-8.18979 1071.61L-24.7169 1107.89L-77.5599 1115.86L-100.709 1071.09L-184.36 1091.92C-184.434 1093.3 -184.829 1094.41 -185.284 1094.53C-185.827 1094.67 -186.294 1093.31 -186.328 1091.54C-186.406 1089.77 -186.001 1088.24 -185.458 1088.1Z" fill="url(#paint3_linear_340_395)"/>
<path d="M531.856 1146.42L390.673 1014.88L268.752 1036.95L204.939 1133.41L120.825 1139.69L75.2044 1073.82L-3.23541 1087.83L-20.0693 1123.96L-81.6797 1131.38L-104.494 1086.25L-124.216 1090.57C-124.339 1092.18 -124.808 1093.43 -125.413 1093.55C-126.134 1093.72 -126.73 1092.17 -126.794 1090.15C-126.858 1088.13 -126.288 1086.34 -125.567 1086.17C-124.962 1086.04 -124.443 1087.08 -124.272 1088.61L-104.308 1084.16L-81.457 1129.22L-20.5066 1121.6L-3.70745 1085.43L75.6555 1070.92L121.35 1136.65L204.132 1130.12L267.815 1033.47L391.713 1010.49L533.207 1141.59L705.606 1133.73C706.708 1129.35 710.501 1125.93 715.193 1125.69C720.86 1125.38 725.576 1129.83 725.685 1135.59C725.793 1141.36 721.235 1146.19 715.57 1146.4C710.898 1146.55 706.941 1143.49 705.694 1139.2L531.856 1146.42Z" fill="url(#paint4_linear_340_395)"/>
<path d="M-185.068 1112.49C-184.623 1112.41 -184.209 1113.34 -184.077 1114.67L-105.427 1099.52L-82.7558 1145.1L-17.3797 1138.9L-0.401897 1103.09L73.0974 1091.88L118.354 1158.62L209.694 1154.16L274.235 1058.84L385.495 1041.57L524.737 1175.69C525.594 1172.03 528.363 1169.28 531.775 1169.22C535.94 1169.13 539.445 1173.07 539.544 1178.01C539.643 1182.94 536.289 1186.98 532.116 1187.01C528.669 1187.03 525.733 1184.29 524.811 1180.55L523.588 1180.57L384.429 1045.89L275.135 1062.39L210.748 1157.11L210.465 1157.52L117.785 1161.66L72.6019 1094.78L0.0159033 1105.53L-16.9695 1141.29L-83.023 1147.26L-105.685 1101.64L-184.061 1116.42C-184.135 1117.81 -184.503 1118.89 -184.965 1118.95C-185.499 1119.04 -185.966 1117.69 -185.999 1115.91C-186.05 1114.12 -185.628 1112.61 -185.068 1112.49Z" fill="url(#paint5_linear_340_395)"/>
<path d="M-186.811 1046.24C-186.347 1046.08 -185.967 1046.96 -185.809 1048.27L-163.512 1040.34L-155.586 1015.74L-44.2684 970.614L-40.1396 960.113C-40.5038 958.483 -40.3775 956.28 -39.7507 954.71C-39.011 952.824 -37.8356 952.534 -37.1429 954.129C-36.4502 955.723 -36.501 958.548 -37.2679 960.46C-37.8946 962.03 -38.798 962.442 -39.4989 961.653L-43.8981 972.794L-155.357 1017.5L-162.628 1040.02L-61.4885 1004.06L-51.5977 1020.61L-8.50162 1006.88L4.37022 977.139L68.0381 954.115L92.8426 985.962L105.208 982.243L149.419 895.718L243.034 858.229C243.47 855.21 245.06 852.477 247.008 851.693C249.358 850.734 251.339 852.972 251.394 856.668C251.466 860.382 249.606 864.136 247.266 865.051C245.328 865.791 243.657 864.367 243.128 861.749L150.146 898.598L107.633 981.524L174.082 961.468L205.443 904.875L453.308 815.425L513.861 857.184C516.493 854.185 520.121 853.151 522.793 854.973C526.024 857.163 526.538 862.642 523.943 867.201C521.358 871.717 516.677 873.548 513.517 871.324C510.89 869.495 510.125 865.435 511.421 861.526L452.115 820.312L229.962 899.548L259.466 928.227L367.714 894.606L454.294 966.56L555.623 944.645L569.405 954.845C572.292 951.95 576.33 951.183 579.27 953.339C582.838 955.937 583.389 961.727 580.503 966.252C577.643 970.752 572.51 972.217 569.03 969.604C566.135 967.44 565.323 963.114 566.718 959.145L554.194 949.828L453.122 971.252L366.718 898.993L258.694 932.088L226.641 900.74L206.29 907.988L188.341 940.29L213.756 967.563L303.753 942.412C304.262 939.253 306.075 936.482 308.285 935.864C310.977 935.099 313.243 937.69 313.318 941.679C313.393 945.668 311.266 949.468 308.54 950.196C306.313 950.796 304.409 949.073 303.805 946.214L213.032 971.203L186.832 942.945L174.832 964.534L92.3426 989.077L67.575 957.16L30.5758 970.376L68.5933 1022.96L138.827 1004.91L158.288 1028.88C159.485 1027.15 161.167 1026.79 162.41 1028.31C163.886 1030.13 164.144 1033.87 162.986 1036.68C161.811 1039.47 159.678 1040.22 158.201 1038.4C156.975 1036.9 156.601 1034.07 157.176 1031.57L138.253 1008.17L68.1325 1025.9L28.6476 971.071L4.83243 979.578L-8.07406 1009.29L-51.9063 1023.06L-61.77 1006.48L-147.951 1036.77L-139.75 1053.61L-95.7366 1040.09C-95.6117 1038.37 -95.0415 1036.96 -94.3724 1036.74C-93.5427 1036.47 -92.85 1038.06 -92.7985 1040.23C-92.7741 1042.43 -93.3827 1044.4 -94.2296 1044.65C-94.9161 1044.86 -95.5138 1043.8 -95.7099 1042.18L-139.96 1055.62L-148.934 1037.15L-185.812 1050.11C-185.913 1051.53 -186.274 1052.67 -186.711 1052.81C-187.264 1052.99 -187.724 1051.69 -187.757 1049.92C-187.761 1048.02 -187.364 1046.42 -186.811 1046.24Z" fill="url(#paint6_linear_340_395)"/>
<path d="M-187.133 1011.63C-186.686 1011.45 -186.269 1012.27 -186.138 1013.6L-62.3119 958.824L-53.2184 934.734L-9.51748 913.766L4.31464 932.871L66.9752 905.534L90.1821 854.574L172.351 813.783L205.44 844.696L450.945 737.406L518.618 633.479L519.167 632.642L572.84 605.557C573.713 601.149 576.811 596.629 580.617 594.696C585.22 592.349 589.043 594.669 589.128 599.863C589.23 605.075 585.549 611.158 580.965 613.416C577.169 615.305 573.964 613.957 572.939 610.494L520.695 636.632L452.765 740.561L452.28 741.302L204.742 848.418L171.726 817.365L144.279 830.865L99.5943 923.084L99.3902 923.521L36.198 948.347C35.9655 950.547 35.0652 952.482 34.0111 952.899C32.7249 953.398 31.6117 951.58 31.5812 948.833C31.5235 946.112 32.5458 943.435 33.832 942.936C34.9133 942.494 35.8448 943.687 36.1653 945.706L98.7915 920.831L141.601 832.242L90.7808 857.264L67.5219 908.17L3.92771 935.67L-9.89465 916.521L-52.8579 936.958L-61.9688 961.03L-186.142 1015.44C-186.242 1016.86 -186.586 1018.02 -187.06 1018.23C-187.605 1018.47 -188.075 1017.22 -188.108 1015.44C-188.085 1013.51 -187.679 1011.88 -187.133 1011.63Z" fill="url(#paint7_linear_340_395)"/>
<defs>
<linearGradient id="paint0_linear_340_395" x1="304.909" y1="476.731" x2="410.296" y2="587.12" gradientUnits="userSpaceOnUse">
<stop stop-color="#00D1FF"/>
<stop offset="1" stop-color="#64FD93"/>
</linearGradient>
<linearGradient id="paint1_linear_340_395" x1="280.709" y1="517.117" x2="396.87" y2="638.792" gradientUnits="userSpaceOnUse">
<stop stop-color="#00D1FF"/>
<stop offset="1" stop-color="#64FD93"/>
</linearGradient>
<linearGradient id="paint2_linear_340_395" x1="208.769" y1="599.491" x2="351.04" y2="748.516" gradientUnits="userSpaceOnUse">
<stop stop-color="#00D1FF"/>
<stop offset="1" stop-color="#64FD93"/>
</linearGradient>
<linearGradient id="paint3_linear_340_395" x1="20.828" y1="896.604" x2="408.85" y2="1303.04" gradientUnits="userSpaceOnUse">
<stop stop-color="#00D1FF"/>
<stop offset="1" stop-color="#64FD93"/>
</linearGradient>
<linearGradient id="paint4_linear_340_395" x1="86.8453" y1="889.371" x2="516.812" y2="1339.75" gradientUnits="userSpaceOnUse">
<stop stop-color="#00D1FF"/>
<stop offset="1" stop-color="#64FD93"/>
</linearGradient>
<linearGradient id="paint5_linear_340_395" x1="-9.93313" y1="950.57" x2="367.869" y2="1346.31" gradientUnits="userSpaceOnUse">
<stop stop-color="#00D1FF"/>
<stop offset="1" stop-color="#64FD93"/>
</linearGradient>
<linearGradient id="paint6_linear_340_395" x1="46.8887" y1="827.042" x2="371.094" y2="1166.64" gradientUnits="userSpaceOnUse">
<stop stop-color="#00D1FF"/>
<stop offset="1" stop-color="#64FD93"/>
</linearGradient>
<linearGradient id="paint7_linear_340_395" x1="118.962" y1="721.766" x2="287.655" y2="898.467" gradientUnits="userSpaceOnUse">
<stop stop-color="#00D1FF"/>
<stop offset="1" stop-color="#64FD93"/>
</linearGradient>
</defs>
</svg>
