<svg width="1920" height="1080" viewBox="0 0 1920 1080" fill="none" xmlns="http://www.w3.org/2000/svg">
<mask id="mask0_315_339" style="mask-type:luminance" maskUnits="userSpaceOnUse" x="0" y="0" width="1920" height="1080">
<path d="M0.000244141 0H1920V1080H0.000244141V0Z" fill="white"/>
</mask>
<g mask="url(#mask0_315_339)">
<path d="M683.374 1651.51C684.468 1644.27 688.981 1640.71 694.109 1642.17L730.588 1391.97L610.041 1080.68L661.357 897.497L775.237 873.347L793.254 770.822L730.451 660.234L730.177 659.747L760.331 550.959L800.913 552.422L817.015 479.034L773.357 417.009L773.152 416.71L809.972 301.66C808.639 300.61 807.784 299.485 807.921 298.997C808.126 298.397 809.733 298.884 811.511 300.084C813.288 301.284 814.588 302.747 814.382 303.385C814.212 303.91 813.083 303.647 811.682 302.86L775.408 417.872L819.374 480.197L803.34 554.672L762.793 553.284L733.357 661.134L796.263 771.647L796.571 772.209L778.588 876.797L664.878 901.284L614.998 1082.26L736.16 1393.32L700.229 1646.33C704.844 1651.47 707.613 1659.91 706.622 1667.22C705.425 1676.07 699.169 1679.78 692.707 1675.4C686.212 1671.01 682.075 1660.28 683.374 1651.51Z" fill="url(#paint0_linear_315_339)"/>
<path d="M688.448 1395.43L571.764 1078.59L638.431 864.803L752.755 843.578L768.619 765.803L706.533 653.865L744.14 532.14L784.892 534.165L800.072 473.153L756.653 410.64L772.516 365.753C770.978 364.515 770.02 363.165 770.26 362.49C770.533 361.665 772.448 362.153 774.533 363.54C776.619 364.928 778.055 366.728 777.781 367.553C777.542 368.228 776.174 368.003 774.533 367.103L758.978 411.765L802.499 474.315L787.32 536.34L746.602 534.39L709.815 655.253L772.072 767.19L756.106 846.915L641.952 868.478L576.892 1080.17L694.191 1396.78L677.302 1496.6C681.576 1501.22 684.072 1508.64 683.08 1514.9C681.849 1522.44 675.935 1525.33 669.918 1521.28C663.901 1517.19 660.106 1507.78 661.439 1500.32C662.533 1494.13 666.807 1491.28 671.627 1492.78L688.448 1395.43Z" fill="url(#paint1_linear_315_339)"/>
<path d="M789.345 286.823C789.174 287.31 787.977 287.048 786.576 286.26L741.687 403.485L784.593 465.885L769.311 521.348L728.251 518.91L685.755 644.948L746.405 756.21L746.712 756.773L731.362 823.86L615.909 843.285L539.499 1067.87L642.371 1358.16C646.815 1358.76 651.465 1363.15 653.653 1369.22C656.285 1376.57 654.268 1383.58 649.14 1384.9C643.977 1386.21 637.653 1381.18 635.054 1373.76C632.901 1367.61 634.063 1361.83 637.448 1359.36L534.302 1066.33L612.456 839.723L728.046 820.598L734.234 794.085L561.242 819.398L519.943 921.473C523.02 924.51 524.524 928.71 523.328 931.71C521.892 935.348 517.071 935.91 512.593 932.873C508.114 929.873 505.721 924.473 507.225 920.835C508.456 917.835 512.012 917.048 515.704 918.585L557.824 815.76L735.123 790.298L743.259 755.46L682.507 643.635L699.089 595.11L670.849 595.035L641.242 673.035L668.285 726.36C671.02 727.298 673.96 729.735 675.362 732.473C677.037 735.773 675.841 738.21 672.695 737.91C669.55 737.61 665.618 734.685 663.943 731.385C662.576 728.648 663.191 726.548 665.277 726.098L637.755 671.648L668.183 592.523L699.977 592.635L725.892 516.81L766.986 519.285L779.43 474.81L709.858 468.173L686.405 527.648L669.653 526.785C670.507 528.585 669.926 529.86 668.046 529.785C665.755 529.673 662.439 527.61 660.661 525.21C658.883 522.81 659.328 520.973 661.653 521.085C663.567 521.198 666.131 522.623 667.977 524.46L683.943 525.285L707.601 466.073L779.943 473.085L782.268 464.798L739.43 402.398L767.601 329.723L754.371 326.985L723.875 400.035L754.849 445.86L753.448 450.023C755.191 451.485 756.285 453.173 756.012 454.073C755.636 455.16 753.413 454.748 750.986 453.135C748.593 451.523 746.918 449.31 747.294 448.223C747.601 447.323 749.208 447.473 751.123 448.485L752.388 444.698L721.482 398.91L752.524 325.448L767.977 328.635L784.832 285.135C783.499 284.085 782.644 282.998 782.849 282.51C783.089 281.91 784.73 282.435 786.507 283.635C788.319 284.76 789.584 286.223 789.345 286.823Z" fill="url(#paint2_linear_315_339)"/>
<path d="M676.803 211.135C676.495 211.548 675.23 211.21 673.76 210.385L615.777 285.76L589.794 280.173L564.7 310.06L580.632 336.798C582.581 337.66 584.598 339.235 585.452 340.698C586.478 342.423 585.487 343.285 583.196 342.648C580.905 341.973 578.205 340.023 577.179 338.298C576.324 336.873 576.905 336.048 578.444 336.198L562.205 308.86L586.991 279.61L549.965 271.66L508.871 314.973L529.145 352.023L497.658 389.523L540.256 395.185L554.444 376.36C552.632 374.823 551.709 373.098 552.358 372.235C553.145 371.223 555.846 371.785 558.41 373.51C560.974 375.235 562.444 377.485 561.692 378.535C561.042 379.398 559.059 379.135 556.905 378.01L542.512 397.285L496.29 391.21L496.222 391.135L462.478 431.335L408.324 425.71L339.982 498.348L363.641 564.798C366.786 565.923 369.692 568.36 370.615 570.948C371.709 574.023 369.555 576.085 365.726 575.485C361.897 574.885 357.897 571.885 356.803 568.773C355.914 566.185 357.316 564.423 359.982 564.235L336.085 496.735L403.914 425.298L354.581 420.198L299.811 472.698L337.247 584.785L228.495 715.06L-35.4705 731.785L-72.2226 764.673C-69.1115 768.123 -68.9406 772.623 -72.2911 775.66C-76.3594 779.335 -83.9493 779.485 -89.2484 775.923C-94.5134 772.36 -95.4021 766.51 -91.2654 762.873C-87.8466 759.873 -82.0689 759.348 -77.2142 761.298L-38.992 727.36L225.111 711.198L333.042 583.098L295.914 471.048L352.085 417.685L460.017 429.01L526.341 350.748L506.136 313.735L547.982 270.01L613.863 284.185L672.016 209.298C670.717 208.285 669.999 207.235 670.307 206.823C670.683 206.335 672.461 206.935 674.239 208.135C676.051 209.298 677.179 210.648 676.803 211.135Z" fill="url(#paint3_linear_315_339)"/>
<path d="M-55.2582 689.703L207.101 678.415L300.024 574.99L265.015 462.228L337.938 397.053L445.733 409.54L505.699 343.128L485.938 306.003L536.571 256.315L602.485 270.978L616.776 253.728C615.306 252.528 614.519 251.328 614.964 250.803C615.477 250.165 617.562 250.803 619.614 252.153C621.665 253.503 622.896 255.153 622.383 255.79C621.938 256.315 620.434 255.978 618.759 255.04L604.366 272.553L538.485 257.965L488.673 307.315L508.502 344.44L448.161 411.865L340.434 399.528L269.015 463.915L304.332 576.715L210.451 682.203L-51.771 694.015L-206.164 824.14C-202.882 827.965 -203.087 833.065 -207.258 836.628C-212.284 840.94 -221.104 841.278 -226.882 837.378C-232.66 833.478 -233.138 826.84 -228.01 822.603C-223.771 819.115 -217.036 818.365 -211.634 820.428L-55.2582 689.703Z" fill="url(#paint4_linear_315_339)"/>
<path d="M652.413 194.578C652.071 194.953 650.772 194.616 649.336 193.791L590.293 261.141L524.071 246.066L468.687 297.628L488.003 334.641L429.917 395.541L321.61 382.191L240.105 451.341L273.302 563.841L185.678 656.241L-77.3989 664.341C-74.5955 667.491 -74.4929 671.391 -77.6382 673.903C-81.4673 676.978 -88.6469 676.791 -93.6042 673.453C-98.5614 670.116 -99.3819 664.903 -95.4845 661.866C-92.2708 659.353 -86.8007 659.128 -82.2537 661.041L-81.1255 660.141L182.43 652.491L268.96 562.041L236.208 450.066L236.071 449.578L319.148 379.678L427.524 393.178L485.199 333.253L465.952 296.278L522.191 244.378L588.447 259.491L647.592 192.591C646.293 191.578 645.575 190.566 645.952 190.191C646.362 189.741 648.14 190.341 649.917 191.541C651.729 192.741 652.823 194.091 652.413 194.578Z" fill="url(#paint5_linear_315_339)"/>
<path d="M719.315 239.064C719.042 239.514 717.811 239.176 716.375 238.389L703.213 259.989L719.999 282.714L659.76 394.389L666.221 404.626C668.17 405.489 670.221 407.101 671.179 408.639C672.341 410.476 671.52 411.526 669.298 410.926C667.076 410.326 664.341 408.339 663.179 406.464C662.221 404.926 662.666 403.989 664.102 404.026L657.264 393.151L718.05 281.664L702.7 260.851L643.008 358.839L617.401 354.564L590.392 395.214L607.589 425.064L570.392 487.014L515.691 482.964L507.726 494.476L551.384 586.201L500.273 679.801C502.837 682.201 504.033 685.239 502.973 687.189C501.708 689.551 497.64 689.439 493.948 686.926C490.221 684.414 488.273 680.476 489.572 678.151C490.666 676.239 493.64 676.014 496.717 677.439L547.862 584.739L506.153 496.726L463.418 558.639L489.674 620.401L344.683 861.451L246.597 876.414C247.076 880.389 244.683 883.726 240.375 884.401C235.179 885.226 229.298 881.814 227.247 876.789C225.23 871.801 227.828 867.151 232.991 866.401C237.264 865.764 241.982 868.014 244.614 871.651L340.99 857.214L471.862 641.814L415.862 643.351L347.179 744.864L194.871 757.801L121.161 846.226L98.1528 849.151C98.2895 853.239 95.2469 856.689 90.358 857.326C84.4435 858.114 78.2213 854.514 76.4777 849.301C74.7341 844.126 78.1187 839.401 83.9649 838.689C88.8196 838.089 93.8451 840.489 96.4434 844.239L117.401 841.614L191.349 753.714L343.794 741.114L412.785 640.126L473.811 638.589L485.811 618.864L470.871 583.576L420.102 583.126L360.238 665.589C362.871 668.139 363.896 671.364 362.426 673.389C360.649 675.864 355.965 675.714 351.965 673.014C347.965 670.314 346.221 666.151 348.067 663.676C349.572 661.651 353.059 661.464 356.443 663.001L417.196 580.089L469.674 580.651L459.691 557.064L513.093 480.451L567.828 484.576L589.606 448.689L502.05 439.876L453.777 503.139L411.862 500.664C412.443 502.726 411.213 504.189 408.546 504.039C405.366 503.851 401.435 501.451 399.76 498.676C398.119 495.901 399.384 493.839 402.563 494.026C405.196 494.176 408.341 495.864 410.255 498.001L451.11 500.476L499.589 437.514L590.734 446.814L604.751 423.714L587.623 393.864L615.281 352.651L640.888 356.964L692.102 273.714L667.794 268.014L639.726 309.189C641.298 310.464 642.153 311.851 641.743 312.489C641.23 313.276 639.008 312.676 636.82 311.214C634.632 309.714 633.264 307.914 633.811 307.126C634.255 306.489 635.862 306.789 637.64 307.764L666.016 266.476L692.649 272.739L714.563 237.114C713.264 236.064 712.478 235.014 712.751 234.601C713.093 234.076 714.802 234.639 716.58 235.839C718.461 237.151 719.657 238.539 719.315 239.064Z" fill="url(#paint6_linear_315_339)"/>
<path d="M753.711 262.729C753.472 263.179 752.275 262.916 750.839 262.091L688.343 389.479L703.523 412.691L683.079 458.779L651.25 455.591L619.249 519.791L647.626 571.766L610.532 659.366L548.959 661.954L423.762 913.616L462.497 1034.33L462.805 1035.3L439.01 1092.83C442.532 1096.5 444.07 1101.87 442.395 1105.95C440.378 1110.9 434.497 1112.07 429.301 1108.54C424.07 1105.02 421.54 1098.15 423.626 1093.28C425.335 1089.23 429.677 1087.84 434.053 1089.49L457.438 1033.65L418.942 912.754L418.668 911.891L545.95 658.879L607.591 656.441L620.104 627.266L571.284 531.266L571.044 530.816L606.019 467.966C604.07 466.279 603.01 464.291 603.591 463.241C604.309 461.966 607.147 462.416 609.882 464.291C612.617 466.129 614.292 468.716 613.574 469.991C612.993 471.079 610.942 470.929 608.651 469.766L574.258 532.241L621.267 624.379L644.412 570.341L616.138 518.366L648.856 453.379L680.72 456.604L700.993 411.416L685.848 388.204L749.027 260.816C747.728 259.766 746.908 258.716 747.147 258.229C747.42 257.666 749.096 258.191 750.873 259.391C752.754 260.741 753.985 262.166 753.711 262.729Z" fill="url(#paint7_linear_315_339)"/>
</g>
<defs>
<linearGradient id="paint0_linear_315_339" x1="817.9" y1="987.99" x2="610.041" y2="987.99" gradientUnits="userSpaceOnUse">
<stop stop-color="#00D1FF"/>
<stop offset="1" stop-color="#64FD93"/>
</linearGradient>
<linearGradient id="paint1_linear_315_339" x1="800.874" y1="942.599" x2="571.764" y2="942.599" gradientUnits="userSpaceOnUse">
<stop stop-color="#00D1FF"/>
<stop offset="1" stop-color="#64FD93"/>
</linearGradient>
<linearGradient id="paint2_linear_315_339" x1="787.384" y1="833.682" x2="506.776" y2="833.682" gradientUnits="userSpaceOnUse">
<stop stop-color="#00D1FF"/>
<stop offset="1" stop-color="#64FD93"/>
</linearGradient>
<linearGradient id="paint3_linear_315_339" x1="671.447" y1="492.58" x2="-93.8664" y2="492.58" gradientUnits="userSpaceOnUse">
<stop stop-color="#00D1FF"/>
<stop offset="1" stop-color="#64FD93"/>
</linearGradient>
<linearGradient id="paint4_linear_315_339" x1="616.485" y1="545.325" x2="-231.558" y2="545.325" gradientUnits="userSpaceOnUse">
<stop stop-color="#00D1FF"/>
<stop offset="1" stop-color="#64FD93"/>
</linearGradient>
<linearGradient id="paint5_linear_315_339" x1="647.214" y1="433.065" x2="-97.9417" y2="433.065" gradientUnits="userSpaceOnUse">
<stop stop-color="#00D1FF"/>
<stop offset="1" stop-color="#64FD93"/>
</linearGradient>
<linearGradient id="paint6_linear_315_339" x1="715.464" y1="559.464" x2="76.0191" y2="559.464" gradientUnits="userSpaceOnUse">
<stop stop-color="#00D1FF"/>
<stop offset="1" stop-color="#64FD93"/>
</linearGradient>
<linearGradient id="paint7_linear_315_339" x1="751.389" y1="684.291" x2="418.668" y2="684.291" gradientUnits="userSpaceOnUse">
<stop stop-color="#00D1FF"/>
<stop offset="1" stop-color="#64FD93"/>
</linearGradient>
</defs>
</svg>
