<svg width="1327" height="1667" viewBox="0 0 1327 1667" fill="none" xmlns="http://www.w3.org/2000/svg">
<path d="M1187.69 1459.87C1187.32 1452.56 1191.04 1448.17 1196.35 1448.59L1182.44 1196.12L1002.5 914.961L1016.43 725.232L1123.25 678.957L1120.55 574.895L1037.05 478.976L1036.68 478.552L1044.64 365.944L1084.71 359.322L1085.92 284.198L1030.82 232.074L1030.56 231.821L1043.81 111.751C1042.29 110.987 1041.23 110.054 1041.27 109.549C1041.35 108.92 1043.02 109.079 1045 109.902C1046.98 110.725 1048.55 111.901 1048.47 112.566C1048.41 113.115 1047.25 113.081 1045.72 112.588L1033 232.512L1088.46 284.869L1087.53 361.045L1047.52 367.734L1040.08 479.281L1123.67 575.107L1124.08 575.597L1127.22 681.673L1020.63 728.245L1007.67 915.521L1188.17 1196.34L1203.18 1451.45C1208.72 1455.57 1213.11 1463.29 1213.59 1470.65C1214.17 1479.56 1208.78 1484.45 1201.58 1481.43C1194.34 1478.42 1188.16 1468.73 1187.69 1459.87Z" fill="url(#paint0_linear_315_341)"/>
<path d="M1141.82 1207.88L964.568 920.507L987.468 697.74L1095.3 654.243L1095.41 574.866L1012.34 477.481L1025.04 350.713L1065.38 344.608L1068.15 281.797L1013.18 229.147L1019.82 182.004C1018.07 181.097 1016.86 179.964 1016.96 179.255C1017.06 178.392 1019.04 178.489 1021.36 179.435C1023.68 180.381 1025.44 181.86 1025.34 182.723C1025.24 183.432 1023.85 183.483 1022.06 182.927L1015.68 229.788L1070.76 282.454L1068.19 346.258L1027.9 352.43L1015.83 478.19L1099.07 575.541L1099.25 656.849L991.649 700.643L969.906 921.032L1147.72 1208.06L1150.99 1309.25C1156.09 1312.92 1160.01 1319.7 1160.28 1326.04C1160.57 1333.67 1155.35 1337.67 1148.65 1334.9C1141.94 1332.09 1136.35 1323.62 1136.17 1316.04C1136.02 1309.76 1139.64 1306.11 1144.66 1306.63L1141.82 1207.88Z" fill="url(#paint1_linear_315_341)"/>
<path d="M1020.64 101.304C1020.57 101.816 1019.35 101.796 1017.82 101.303L997.093 225.106L1051.53 277.746L1047.56 335.139L1006.84 340.901L990.207 472.866L1071.74 569.874L1072.15 570.365L1070.42 639.164L961.123 681.121L930.816 916.407L1089.27 1180.5C1093.74 1180.2 1099.17 1183.58 1102.52 1189.1C1106.56 1195.78 1105.97 1203.05 1101.21 1205.36C1096.41 1207.67 1089.21 1204 1085.19 1197.24C1081.86 1191.64 1081.85 1185.75 1084.68 1182.65L925.418 915.932L957.031 678.315L1066.52 636.625L1067.33 609.412L902.802 668.561L882.588 776.803C886.207 779.169 888.515 782.987 887.937 786.165C887.252 790.015 882.639 791.523 877.647 789.435C872.662 787.384 869.244 782.566 869.997 778.703C870.607 775.518 873.936 774.04 877.86 774.814L898.729 665.675L1067.45 605.523L1068.5 569.764L986.763 472.224L993.382 421.373L965.689 426.905L952.156 509.23L989.246 556.126C992.112 556.502 995.478 558.307 997.395 560.712C999.692 563.614 999.003 566.24 995.861 566.571C992.719 566.901 988.285 564.815 985.988 561.913C984.104 559.501 984.29 557.321 986.245 556.466L948.462 508.563L962.577 424.972L993.762 418.771L1004.11 339.311L1044.88 333.579L1048.24 287.519L978.738 294.824L967.558 357.771L950.968 360.251C952.163 361.846 951.847 363.211 949.989 363.511C947.722 363.855 944.062 362.492 941.843 360.493C939.624 358.493 939.695 356.604 941.996 356.253C943.895 355.983 946.691 356.871 948.865 358.305L964.677 355.944L976.11 293.214L1048.4 285.726L1049.04 277.142L994.665 224.488L1007.85 147.667L994.338 147.61L978.95 225.26L1018.41 264.024L1017.86 268.382C1019.86 269.47 1021.26 270.906 1021.17 271.843C1021.02 272.983 1018.76 273.02 1016.06 271.921C1013.4 270.816 1011.32 268.98 1011.47 267.84C1011.59 266.897 1013.2 266.725 1015.27 267.337L1015.76 263.374L976.381 224.633L992.223 146.47L1008 146.526L1015.89 100.546C1014.37 99.7817 1013.32 98.8855 1013.42 98.367C1013.54 97.7314 1015.25 97.9202 1017.23 98.7434C1019.23 99.4863 1020.76 100.669 1020.64 101.304Z" fill="url(#paint2_linear_315_341)"/>
<path d="M895.316 49.4639C895.096 49.9292 893.79 49.8495 892.185 49.3328L850.319 134.718L823.744 134.4L805.082 168.674L826.004 191.716C828.086 192.175 830.375 193.318 831.503 194.582C832.851 196.069 832.05 197.111 829.679 196.941C827.3 196.734 824.266 195.359 822.918 193.872C821.797 192.645 822.203 191.721 823.741 191.563L802.398 167.993L820.885 134.405L783.018 133.963L751.339 184.571L778.564 216.859L755.148 259.863L798.022 256.957L808.191 235.69C806.11 234.543 804.863 233.036 805.328 232.061C805.898 230.913 808.657 230.928 811.512 232.11C814.368 233.291 816.255 235.205 815.727 236.383C815.261 237.357 813.266 237.494 810.931 236.819L800.651 258.567L754.142 261.789L754.061 261.729L728.969 307.827L674.776 313.064L622.213 397.823L658.592 458.254C661.898 458.732 665.23 460.544 666.648 462.897C668.331 465.694 666.629 468.143 662.757 468.315C658.885 468.487 654.369 466.341 652.679 463.507C651.294 461.148 652.318 459.142 654.895 458.429L618.074 397.016L670.372 313.536L621.008 318.33L577.75 380.658L636.692 483.083L555.965 632.354L300.572 701.146L271.08 740.675C274.814 743.438 275.875 747.815 273.194 751.457C269.936 755.866 262.527 757.52 256.626 755.08C250.759 752.634 248.727 747.077 252.059 742.691C254.814 739.072 260.373 737.41 265.518 738.358L296.243 697.508L551.881 629.24L632.235 482.264L573.603 379.814L618.063 316.363L726.095 306.037L775.564 216.166L748.413 183.901L780.747 132.739L848.13 133.554L890.26 48.6131C888.786 47.8786 887.874 46.992 888.094 46.5267C888.365 45.9742 890.227 46.2094 892.207 47.0326C894.214 47.8122 895.588 48.9114 895.316 49.4639Z" fill="url(#paint3_linear_315_341)"/>
<path d="M272.825 663.829L527.722 600.685L598.265 480.872L541.569 377.304L600.103 298.95L708.231 289.79L753.82 212.796L727.083 180.332L766.844 121.582L834.358 122.868L844.94 103.125C843.261 102.241 842.252 101.221 842.583 100.618C842.959 99.8911 845.13 100.102 847.408 101.018C849.687 101.934 851.221 103.307 850.844 104.033C850.513 104.636 848.972 104.604 847.144 104.018L836.513 124.039L769.048 122.82L730.024 181.076L756.828 213.525L711.072 291.587L603.04 300.88L545.824 378.163L602.83 481.708L531.758 603.732L277.099 667.364L151.61 825.548C155.586 828.645 156.397 833.684 153.017 838.004C148.947 843.228 140.369 845.31 133.932 842.634C127.495 839.959 125.708 833.548 129.893 828.377C133.356 824.118 139.808 822.046 145.512 822.995L272.825 663.829Z" fill="url(#paint4_linear_315_341)"/>
<path d="M868.126 38.0782C867.865 38.5136 866.525 38.4407 864.954 37.9172L820.456 115.647L752.559 114.018L708.512 175.549L734.791 207.99L689.951 279.209L581.149 287.625L514.994 371.578L569.862 475.249L502.324 583.205L246.091 643.367C249.464 645.898 250.338 649.7 247.755 652.787C244.612 656.561 237.538 657.802 232.017 655.515C226.496 653.228 224.657 648.282 227.874 644.531C230.525 641.431 235.841 640.125 240.678 641.096L241.605 639.99L498.397 580.174L565.249 474.347L510.921 371.102L510.69 370.652L578.238 285.651L687.137 277.369L731.768 207.187L705.564 174.769L750.381 112.738L818.319 114.397L863.007 37.0872C861.532 36.3527 860.628 35.5029 860.922 35.0607C861.235 34.5382 863.096 34.7734 865.077 35.5966C867.091 36.413 868.431 37.519 868.126 38.0782Z" fill="url(#paint5_linear_315_341)"/>
<path d="M942.527 68.3974C942.349 68.8927 941.075 68.8063 939.512 68.3195L930.899 92.1025L951.862 111.043L914.991 232.454L923.356 241.205C925.437 241.663 927.767 242.836 929.011 244.153C930.515 245.723 929.919 246.915 927.622 246.768C925.325 246.622 922.25 245.217 920.738 243.61C919.495 242.293 919.744 241.286 921.159 241.037L912.299 231.736L949.744 110.401L930.568 93.0496L891.515 200.937L865.569 201.83L847.167 247.032L869.947 272.875L845.789 340.976L791.372 347.865L785.85 360.73L846.848 441.963L815.335 543.846C818.324 545.689 820.1 548.429 819.448 550.55C818.677 553.117 814.668 553.814 810.55 552.085C806.399 550.362 803.707 546.89 804.519 544.353C805.212 542.261 808.082 541.45 811.381 542.236L843.106 441.228L784.756 363.247L755.161 432.411L793.156 487.732L698.901 752.767L605.737 786.903C606.996 790.704 605.313 794.45 601.225 795.966C596.295 797.807 589.855 795.629 586.847 791.111C583.88 786.624 585.503 781.55 590.414 779.791C594.476 778.317 599.546 779.586 602.849 782.629L694.441 749.347L779.949 512.254L725.369 524.878L678.203 638.004L531.495 680.919L476.805 782.216L454.835 789.65C455.781 793.629 453.483 797.615 448.818 799.21C443.178 801.156 436.365 798.863 433.621 794.1C430.885 789.374 433.264 784.071 438.853 782.213C443.492 780.661 448.894 782.016 452.185 785.175L472.204 778.442L527.232 677.612L674.141 635.001L721.713 522.328L781.219 508.706L789.064 486.992L767.416 455.372L717.568 465.01L675.266 557.714C678.352 559.691 679.998 562.648 678.959 564.925C677.708 567.704 673.087 568.486 668.631 566.634C664.175 564.782 661.64 561.048 662.958 558.256C664.03 555.973 667.411 555.097 671.033 555.932L714.117 462.609L765.663 452.743L751.196 431.607L788.327 345.918L842.792 339.096L857.012 299.599L769.449 308.343L734.695 379.929L693.123 385.824C694.102 387.73 693.186 389.408 690.543 389.79C687.389 390.237 683.06 388.666 680.867 386.278C678.708 383.884 679.538 381.612 682.691 381.164C685.301 380.789 688.719 381.818 691.02 383.533L731.553 377.849L766.568 306.516L857.745 297.538L866.898 272.115L844.185 246.259L863.112 200.376L889.065 199.52L922.734 107.76L897.778 106.999L878.442 152.926C880.236 153.864 881.35 155.054 881.074 155.76C880.728 156.634 878.431 156.487 875.996 155.488C873.554 154.452 871.856 152.959 872.236 152.079C872.545 151.366 874.179 151.341 876.115 151.944L895.731 105.845L923.076 106.696L937.483 67.4296C936.001 66.6583 935.022 65.7853 935.208 65.3267C935.439 64.7443 937.226 64.9563 939.206 65.7795C941.31 66.6926 942.758 67.815 942.527 68.3974Z" fill="url(#paint6_linear_315_341)"/>
<path d="M980.936 84.7636C980.791 85.2522 979.566 85.2324 977.995 84.7089L942.031 221.967L961.516 241.705L950.627 290.933L918.799 294.128L900.18 363.402L938.309 408.71L919.343 501.93L859.509 516.689L786.762 788.196L848.688 898.817L849.184 899.711L837.281 960.815C841.462 963.718 844.035 968.668 843.204 973.007C842.21 978.259 836.677 980.565 830.884 978.142C825.058 975.726 821.216 969.502 822.292 964.31C823.164 960.001 827.144 957.779 831.76 958.528L843.595 899.159L781.866 788.307L781.427 787.516L855.95 514.272L915.88 499.647L922.353 468.569L855.447 384.171L855.123 383.777L876.925 315.235C874.68 313.968 873.247 312.23 873.608 311.086C874.058 309.694 876.929 309.572 879.982 310.866C883.027 312.124 885.182 314.328 884.732 315.72C884.378 316.901 882.338 317.161 879.862 316.477L858.555 384.536L922.919 465.508L934.876 407.951L896.848 362.623L916.014 292.434L947.883 289.27L958.783 240.957L939.331 221.213L975.966 83.819C974.484 83.0477 973.472 82.1815 973.609 81.6562C973.766 81.0506 975.512 81.2326 977.492 82.0558C979.603 83.0057 981.092 84.158 980.936 84.7636Z" fill="url(#paint7_linear_315_341)"/>
<defs>
<linearGradient id="paint0_linear_315_341" x1="1187.82" y1="782.849" x2="984.097" y2="824.112" gradientUnits="userSpaceOnUse">
<stop stop-color="#00D1FF"/>
<stop offset="1" stop-color="#64FD93"/>
</linearGradient>
<linearGradient id="paint1_linear_315_341" x1="1162.12" y1="741.741" x2="937.572" y2="787.222" gradientUnits="userSpaceOnUse">
<stop stop-color="#00D1FF"/>
<stop offset="1" stop-color="#64FD93"/>
</linearGradient>
<linearGradient id="paint2_linear_315_341" x1="1127.28" y1="637.67" x2="852.255" y2="693.374" gradientUnits="userSpaceOnUse">
<stop stop-color="#00D1FF"/>
<stop offset="1" stop-color="#64FD93"/>
</linearGradient>
<linearGradient id="paint3_linear_315_341" x1="945.937" y1="326.37" x2="195.854" y2="478.293" gradientUnits="userSpaceOnUse">
<stop stop-color="#00D1FF"/>
<stop offset="1" stop-color="#64FD93"/>
</linearGradient>
<linearGradient id="paint4_linear_315_341" x1="902.539" y1="388.976" x2="71.3735" y2="557.321" gradientUnits="userSpaceOnUse">
<stop stop-color="#00D1FF"/>
<stop offset="1" stop-color="#64FD93"/>
</linearGradient>
<linearGradient id="paint5_linear_315_341" x1="910.373" y1="272.85" x2="180.046" y2="420.772" gradientUnits="userSpaceOnUse">
<stop stop-color="#00D1FF"/>
<stop offset="1" stop-color="#64FD93"/>
</linearGradient>
<linearGradient id="paint6_linear_315_341" x1="1002.36" y1="383.185" x2="375.636" y2="510.122" gradientUnits="userSpaceOnUse">
<stop stop-color="#00D1FF"/>
<stop offset="1" stop-color="#64FD93"/>
</linearGradient>
<linearGradient id="paint7_linear_315_341" x1="1062.34" y1="498.397" x2="736.246" y2="564.445" gradientUnits="userSpaceOnUse">
<stop stop-color="#00D1FF"/>
<stop offset="1" stop-color="#64FD93"/>
</linearGradient>
</defs>
</svg>
