<svg width="32" height="33" viewBox="0 0 32 33" fill="none" xmlns="http://www.w3.org/2000/svg">
<path fill-rule="evenodd" clip-rule="evenodd" d="M16 29.3C23.0692 29.3 28.7999 23.5693 28.7999 16.5C28.7999 9.43077 23.0692 3.70001 16 3.70001C8.93071 3.70001 3.19995 9.43077 3.19995 16.5C3.19995 23.5693 8.93071 29.3 16 29.3ZM21.9313 14.4314C22.5562 13.8065 22.5562 12.7935 21.9313 12.1686C21.3065 11.5438 20.2934 11.5438 19.6686 12.1686L14.4 17.4373L12.3313 15.3686C11.7065 14.7438 10.6934 14.7438 10.0686 15.3686C9.44374 15.9935 9.44374 17.0065 10.0686 17.6314L13.2686 20.8314C13.8934 21.4562 14.9065 21.4562 15.5313 20.8314L21.9313 14.4314Z" fill="#5EFF84"/>
</svg>
